<svg xmlns="http://www.w3.org/2000/svg" xmlns:xlink="http://www.w3.org/1999/xlink" xmlns:lucid="lucid" width="2369" height="1112"><g transform="translate(3643 -1503)" lucid:page-tab-id="0_0"><path d="M-3518 1760h162v56h-162zM-3356 1760h60v56h-60zM-3518 1816h162v188h-162zM-3356 1816h60v188h-60z" fill="#fff"/><path d="M-3518 1760v56M-3518 1760h162M-3356 1760v56M-3296 1760v56M-3356 1760h60M-3518 1816v188M-3518 1816h162M-3518 2004h162M-3356 1816v188M-3296 1816v188M-3356 1816h60M-3356 2004h60" stroke="#282c33" stroke-width="2" fill="none"/><use xlink:href="#a" transform="matrix(1,0,0,1,-3513,1765) translate(68.5925925925926 27.444444444444443)"/><use xlink:href="#b" transform="matrix(1,0,0,1,-3351,1765) translate(19.444444444444443 27.444444444444443)"/><path d="M-3518 2240h158v50h-158zM-3518 2290h158v192h-158z" fill="#fff"/><path d="M-3518 2240v50M-3360 2240v50M-3518 2240h158M-3518 2290v192M-3360 2290v192M-3518 2290h158M-3518 2482h158" stroke="#282c33" stroke-width="2" fill="none"/><use xlink:href="#a" transform="matrix(1,0,0,1,-3513,2245) translate(66.5925925925926 24.444444444444443)"/><path d="M-3178 1586h60v52h-60zM-3178 1638h60v186h-60z" fill="#fff"/><path d="M-3178 1586v52M-3118 1586v52M-3178 1586h60M-3178 1638v186M-3118 1638v186M-3178 1638h60M-3178 1824h60" stroke="#282c33" stroke-width="2" fill="none"/><use xlink:href="#b" transform="matrix(1,0,0,1,-3173,1591) translate(19.444444444444443 25.444444444444443)"/><path d="M-3178 1869h158v50h-158zM-3178 1919h158v192h-158z" fill="#fff"/><path d="M-3178 1869v50M-3020 1869v50M-3178 1869h158M-3178 1919v192M-3020 1919v192M-3178 1919h158M-3178 2111h158" stroke="#282c33" stroke-width="2" fill="none"/><use xlink:href="#a" transform="matrix(1,0,0,1,-3173,1874) translate(66.5925925925926 24.444444444444443)"/><path d="M-2875 1925h158v50h-158zM-2875 1975h158v373h-158z" fill="#fff"/><path d="M-2875 1925v50M-2717 1925v50M-2875 1925h158M-2875 1975v373M-2717 1975v373M-2875 1975h158M-2875 2348h158" stroke="#282c33" stroke-width="2" fill="none"/><use xlink:href="#a" transform="matrix(1,0,0,1,-2870,1930) translate(66.5925925925926 24.444444444444443)"/><path d="M-3293.5 1882h50.5a6 6 0 0 0 6-6v-168a6 6 0 0 1 6-6h31.38" stroke="#3a414a" stroke-width="3" fill="none"/><path d="M-3293.46 1883.47h-1.54v-2.94h1.54z" stroke="#3a414a" stroke-width=".05" fill="#3a414a"/><path d="M-3183.85 1702l-14.27 4.63v-9.27z" stroke="#3a414a" stroke-width="3" fill="#3a414a"/><path d="M-3293.5 1882h50.5a6 6 0 0 1 6 6v104a6 6 0 0 0 6 6h31.38" stroke="#3a414a" stroke-width="3" fill="none"/><path d="M-3293.46 1883.47h-1.54v-2.94h1.54z" stroke="#3a414a" stroke-width=".05" fill="#3a414a"/><path d="M-3183.85 1998l-14.27 4.63v-9.27z" stroke="#3a414a" stroke-width="3" fill="#3a414a"/><path d="M-3017.5 1990h64a6 6 0 0 1 6 6v96a6 6 0 0 0 6 6h44.88" stroke="#3a414a" stroke-width="3" fill="none"/><path d="M-3017.46 1991.47h-1.54v-2.94h1.54z" stroke="#3a414a" stroke-width=".05" fill="#3a414a"/><path d="M-2880.85 2098l-14.27 4.64v-9.28z" stroke="#3a414a" stroke-width="3" fill="#3a414a"/><path d="M-3357.5 2333.07h234a6 6 0 0 0 6-6v-156.64a6 6 0 0 1 6-6h214.88" stroke="#3a414a" stroke-width="3" fill="none"/><path d="M-3357.46 2334.54h-1.54v-2.95h1.54z" stroke="#3a414a" stroke-width=".05" fill="#3a414a"/><path d="M-2880.85 2164.43l-14.27 4.64v-9.27z" stroke="#3a414a" stroke-width="3" fill="#3a414a"/><path d="M-2618 2080a6 6 0 0 1 6-6h210a6 6 0 0 1 6 6v84a6 6 0 0 1-6 6h-210a6 6 0 0 1-6-6z" stroke="#282c33" stroke-width="2" fill="#fff"/><use xlink:href="#c" transform="matrix(1,0,0,1,-2606.9,2078.8) translate(3.8518518518518476 48.520833333333336)"/><use xlink:href="#d" transform="matrix(1,0,0,1,-2606.9,2078.8) translate(105.92592592592591 48.520833333333336)"/><path d="M-2297 1925h143v50h-143zM-2297 1975h143v373h-143z" fill="#fff"/><path d="M-2297 1925v50M-2154 1925v50M-2297 1925h143M-2297 1975v373M-2154 1975v373M-2297 1975h143M-2297 2348h143" stroke="#282c33" stroke-width="2" fill="none"/><use xlink:href="#a" transform="matrix(1,0,0,1,-2292,1930) translate(59.092592592592595 24.444444444444443)"/><path d="M-2031.9 1869h158v50h-158zM-2031.9 1919h158v192h-158z" fill="#fff"/><path d="M-2031.9 1869v50M-1873.9 1869v50M-2031.9 1869h158M-2031.9 1919v192M-1873.9 1919v192M-2031.9 1919h158M-2031.9 2111h158" stroke="#282c33" stroke-width="2" fill="none"/><use xlink:href="#a" transform="matrix(1,0,0,1,-2026.9073825503358,1874) translate(66.5925925925926 24.444444444444443)"/><path d="M-2031.9 2240h158v50h-158zM-2031.9 2290h158v192h-158z" fill="#fff"/><path d="M-2031.9 2240v50M-1873.9 2240v50M-2031.9 2240h158M-2031.9 2290v192M-1873.9 2290v192M-2031.9 2290h158M-2031.9 2482h158" stroke="#282c33" stroke-width="2" fill="none"/><use xlink:href="#a" transform="matrix(1,0,0,1,-2026.9073825503358,2245) translate(66.5925925925926 24.444444444444443)"/><path d="M-1766.82 1931a6 6 0 0 1 6-6h210a6 6 0 0 1 6 6v84a6 6 0 0 1-6 6h-210a6 6 0 0 1-6-6z" stroke="#282c33" stroke-width="2" fill="#fff"/><use xlink:href="#e" transform="matrix(1,0,0,1,-1755.7147651006717,1929.8) translate(57.74074074074073 49.35763888888889)"/><path d="M-2714.5 2115.96h74.88" stroke="#3a414a" stroke-width="3" fill="none"/><path d="M-2714.46 2117.44h-1.54v-2.95h1.54z" stroke="#3a414a" stroke-width=".05" fill="#3a414a"/><path d="M-2623.85 2115.96l-14.27 4.64v-9.27z" stroke="#3a414a" stroke-width="3" fill="#3a414a"/><path d="M-2393.5 2109.62h46.98a.02.02 0 0 0 .02-.02.02.02 0 0 1 .02 0h27.86" stroke="#3a414a" stroke-width="3" fill="none"/><path d="M-2393.46 2111.1h-1.54v-2.95h1.54z" stroke="#3a414a" stroke-width=".05" fill="#3a414a"/><path d="M-2302.85 2109.6l-14.27 4.62v-9.27z" stroke="#3a414a" stroke-width="3" fill="#3a414a"/><path d="M-2151.5 2058.76h52.55a6 6 0 0 0 6-6v-68.26a6 6 0 0 1 6-6h33.42" stroke="#3a414a" stroke-width="3" fill="none"/><path d="M-2151.46 2060.24h-1.54v-2.95h1.54z" stroke="#3a414a" stroke-width=".05" fill="#3a414a"/><path d="M-2037.76 1978.5l-14.27 4.64v-9.27z" stroke="#3a414a" stroke-width="3" fill="#3a414a"/><path d="M-2151.5 2198.44h52.55a6 6 0 0 1 6 6v165.64a6 6 0 0 0 6 6h33.42" stroke="#3a414a" stroke-width="3" fill="none"/><path d="M-2151.46 2199.9h-1.54V2197h1.54z" stroke="#3a414a" stroke-width=".05" fill="#3a414a"/><path d="M-2037.76 2376.08l-14.27 4.64v-9.27z" stroke="#3a414a" stroke-width="3" fill="#3a414a"/><path d="M-1871.4 1972.16h82.97" stroke="#3a414a" stroke-width="3" fill="none"/><path d="M-1871.37 1973.63h-1.54v-2.95h1.53z" stroke="#3a414a" stroke-width=".05" fill="#3a414a"/><path d="M-1772.67 1972.16l-14.26 4.64v-9.27z" stroke="#3a414a" stroke-width="3" fill="#3a414a"/><path d="M-1654.34 2355.06l-.1 1.1-.26 1.15-.45 1.1-.6 1-.78.9-.9.75-1 .6-1.07.46-1.14.3-1.12.07h-209.65v-2.94h209.53l.76-.07.68-.16.66-.27.6-.37.54-.46.46-.54.37-.6.28-.66.17-.7.06-.76v-227.2h2.96zm0-259.32h-2.95v-53.12h2.96z" stroke="#3a414a" stroke-width=".05" fill="#3a414a"/><path d="M-1871.37 2362.47h-1.54v-2.94h1.53z" fill="#3a414a"/><path stroke="#3a414a" stroke-width=".05" fill="#3a414a"/><path d="M-1651.18 2041.12h-9.27l4.63-14.27z" fill="#3a414a"/><path d="M-1649.15 2042.6h-13.33l6.66-20.52zm-9.27-2.95h5.2l-2.6-8.02z" stroke="#3a414a" stroke-width=".05" fill="#3a414a"/><use xlink:href="#f" transform="matrix(1,0,0,1,-1694.7406910265975,2095.734899328859) translate(0 21.333333333333336)"/><use xlink:href="#g" transform="matrix(1,0,0,1,-1694.7406910265975,2095.734899328859) translate(25.185185185185187 21.333333333333336)"/><path d="M-1542.32 1973h63.65" stroke="#3a414a" stroke-width="3" fill="none"/><path d="M-1542.28 1974.47h-1.54v-2.94h1.54z" stroke="#3a414a" stroke-width=".05" fill="#3a414a"/><path d="M-1462.9 1973l-14.27 4.63v-9.27z" stroke="#3a414a" stroke-width="3" fill="#3a414a"/><path d="M-1454.22 1854h60v52h-60zM-1454.22 1906h60v186h-60z" fill="#fff"/><path d="M-1454.22 1854v52M-1394.22 1854v52M-1454.22 1854h60M-1454.22 1906v186M-1394.22 1906v186M-1454.22 1906h60M-1454.22 2092h60" stroke="#282c33" stroke-width="2" fill="none"/><use xlink:href="#h" transform="matrix(1,0,0,1,-1449.2161073825505,1859) translate(13.271604938271604 25.444444444444443)"/><path d="M-3484.73 2046.2a6 6 0 0 1 6-6h143.46a6 6 0 0 1 6 6v27.35a6 6 0 0 1-6 6h-143.46a6 6 0 0 1-6-6z" fill="none"/><use xlink:href="#i" transform="matrix(1,0,0,1,-3479.7272222222223,2045.2100671140934) translate(0 19.88888888888889)"/><use xlink:href="#j" transform="matrix(1,0,0,1,-3479.7272222222223,2045.2100671140934) translate(93.90740740740742 19.88888888888889)"/><path d="M-3463.83 2515.7a6 6 0 0 1 6-6h133.6a6 6 0 0 1 6 6v40.02a6 6 0 0 1-6 6h-133.6a6 6 0 0 1-6-6z" fill="none"/><use xlink:href="#k" transform="matrix(1,0,0,1,-3458.8328859060402,2514.687919463087) translate(0 26.38888888888889)"/><use xlink:href="#j" transform="matrix(1,0,0,1,-3458.8328859060402,2514.687919463087) translate(84.06172839506173 26.38888888888889)"/><path d="M-1933.9 1586h60v52h-60zM-1933.9 1638h60v186h-60z" fill="#fff"/><path d="M-1933.9 1586v52M-1873.9 1586v52M-1933.9 1586h60M-1933.9 1638v186M-1873.9 1638v186M-1933.9 1638h60M-1933.9 1824h60" stroke="#282c33" stroke-width="2" fill="none"/><use xlink:href="#b" transform="matrix(1,0,0,1,-1928.9073825503358,1591) translate(19.444444444444443 25.444444444444443)"/><path d="M-1652.43 1903.38h-2.95v-82.3h2.95zm-6.3-199.77l1.13.3 1.1.44 1 .6.88.77.76.9.62 1 .45 1.1.28 1.13.1 1.1v78.16h-2.96v-78.04l-.06-.77-.17-.7-.28-.65-.37-.6-.46-.55-.55-.46-.6-.37-.66-.27-.7-.16-.76-.07h-211.45v-2.94h211.55z" stroke="#3a414a" stroke-width=".05" fill="#3a414a"/><path d="M-1871.37 1706.47h-1.54v-2.94h1.53z" fill="#3a414a"/><path stroke="#3a414a" stroke-width=".05" fill="#3a414a"/><path d="M-1653.9 1919.15l-4.64-14.27h9.27z" fill="#3a414a"/><path d="M-1653.9 1923.92l-6.67-20.52h13.33zm-2.6-17.57l2.6 8.02 2.6-8z" stroke="#3a414a" stroke-width=".05" fill="#3a414a"/><g><use xlink:href="#l" transform="matrix(1,0,0,1,-1698.0184445697475,1789.0939597315432) translate(0 21.333333333333336)"/><use xlink:href="#m" transform="matrix(1,0,0,1,-1698.0184445697475,1789.0939597315432) translate(24.666666666666668 21.333333333333336)"/></g><path d="M-1514.02 2139.32a6 6 0 0 1 6-6h166a6 6 0 0 1 6 6v27.35a6 6 0 0 1-6 6h-166a6 6 0 0 1-6-6z" fill="none"/><g><use xlink:href="#n" transform="matrix(1,0,0,1,-1509.0194630872484,2138.3233333333333) translate(0 19.88888888888889)"/><use xlink:href="#o" transform="matrix(1,0,0,1,-1509.0194630872484,2138.3233333333333) translate(59.54938271604939 19.88888888888889)"/></g><defs><path d="M195 0l-74-108L45 0H8l94-129-87-119h37l69 98 67-98h37l-84 118L233 0h-38" id="p"/><use transform="matrix(0.06172839506172839,0,0,0.06172839506172839,0,0)" xlink:href="#p" id="a"/><path d="M179-190L93 31C79 59 56 82 12 73V49c39 6 53-20 64-50L1-190h34L92-34l54-156h33" id="q"/><use transform="matrix(0.06172839506172839,0,0,0.06172839506172839,0,0)" xlink:href="#q" id="b"/><path fill="#3a414a" d="M33 0v-248h34V0H33" id="r"/><path fill="#3a414a" d="M59-47c-2 24 18 29 38 22v24C64 9 27 4 27-40v-127H5v-23h24l9-43h21v43h35v23H59v120" id="s"/><path fill="#3a414a" d="M100-194c63 0 86 42 84 106H49c0 40 14 67 53 68 26 1 43-12 49-29l28 8c-11 28-37 45-77 45C44 4 14-33 15-96c1-61 26-98 85-98zm52 81c6-60-76-77-97-28-3 7-6 17-6 28h103" id="t"/><path fill="#3a414a" d="M114-163C36-179 61-72 57 0H25l-1-190h30c1 12-1 29 2 39 6-27 23-49 58-41v29" id="u"/><path fill="#3a414a" d="M141-36C126-15 110 5 73 4 37 3 15-17 15-53c-1-64 63-63 125-63 3-35-9-54-41-54-24 1-41 7-42 31l-33-3c5-37 33-52 76-52 45 0 72 20 72 64v82c-1 20 7 32 28 27v20c-31 9-61-2-59-35zM48-53c0 20 12 33 32 33 41-3 63-29 60-74-43 2-92-5-92 41" id="v"/><path fill="#3a414a" d="M24-231v-30h32v30H24zM24 0v-190h32V0H24" id="w"/><path fill="#3a414a" d="M108 0H70L1-190h34L89-25l56-165h34" id="x"/><g id="c"><use transform="matrix(0.07407407407407408,0,0,0.07407407407407408,0,0)" xlink:href="#r"/><use transform="matrix(0.07407407407407408,0,0,0.07407407407407408,7.407407407407408,0)" xlink:href="#s"/><use transform="matrix(0.07407407407407408,0,0,0.07407407407407408,14.814814814814817,0)" xlink:href="#t"/><use transform="matrix(0.07407407407407408,0,0,0.07407407407407408,29.629629629629633,0)" xlink:href="#u"/><use transform="matrix(0.07407407407407408,0,0,0.07407407407407408,38.44444444444445,0)" xlink:href="#v"/><use transform="matrix(0.07407407407407408,0,0,0.07407407407407408,53.25925925925927,0)" xlink:href="#s"/><use transform="matrix(0.07407407407407408,0,0,0.07407407407407408,60.66666666666667,0)" xlink:href="#w"/><use transform="matrix(0.07407407407407408,0,0,0.07407407407407408,66.51851851851852,0)" xlink:href="#x"/><use transform="matrix(0.07407407407407408,0,0,0.07407407407407408,79.85185185185185,0)" xlink:href="#t"/></g><path fill="#3a414a" d="M210-169c-67 3-38 105-44 169h-31v-121c0-29-5-50-35-48C34-165 62-65 56 0H25l-1-190h30c1 10-1 24 2 32 10-44 99-50 107 0 11-21 27-35 58-36 85-2 47 119 55 194h-31v-121c0-29-5-49-35-48" id="y"/><path fill="#3a414a" d="M115-194c55 1 70 41 70 98S169 2 115 4C84 4 66-9 55-30l1 105H24l-1-265h31l2 30c10-21 28-34 59-34zm-8 174c40 0 45-34 45-75s-6-73-45-74c-42 0-51 32-51 76 0 43 10 73 51 73" id="z"/><path fill="#3a414a" d="M84 4C-5 8 30-112 23-190h32v120c0 31 7 50 39 49 72-2 45-101 50-169h31l1 190h-30c-1-10 1-25-2-33-11 22-28 36-60 37" id="A"/><g id="d"><use transform="matrix(0.07407407407407408,0,0,0.07407407407407408,0,0)" xlink:href="#r"/><use transform="matrix(0.07407407407407408,0,0,0.07407407407407408,7.407407407407408,0)" xlink:href="#y"/><use transform="matrix(0.07407407407407408,0,0,0.07407407407407408,29.55555555555556,0)" xlink:href="#z"/><use transform="matrix(0.07407407407407408,0,0,0.07407407407407408,44.37037037037039,0)" xlink:href="#A"/><use transform="matrix(0.07407407407407408,0,0,0.07407407407407408,59.185185185185205,0)" xlink:href="#s"/><use transform="matrix(0.07407407407407408,0,0,0.07407407407407408,66.59259259259261,0)" xlink:href="#t"/><use transform="matrix(0.07407407407407408,0,0,0.07407407407407408,81.40740740740742,0)" xlink:href="#u"/></g><path fill="#3a414a" d="M240 0l2-218c-23 76-54 145-80 218h-23L58-218 59 0H30v-248h44l77 211c21-75 51-140 76-211h43V0h-30" id="B"/><path fill="#3a414a" d="M100-194c62-1 85 37 85 99 1 63-27 99-86 99S16-35 15-95c0-66 28-99 85-99zM99-20c44 1 53-31 53-75 0-43-8-75-51-75s-53 32-53 75 10 74 51 75" id="C"/><path fill="#3a414a" d="M85-194c31 0 48 13 60 33l-1-100h32l1 261h-30c-2-10 0-23-3-31C134-8 116 4 85 4 32 4 16-35 15-94c0-66 23-100 70-100zm9 24c-40 0-46 34-46 75 0 40 6 74 45 74 42 0 51-32 51-76 0-42-9-74-50-73" id="D"/><path fill="#3a414a" d="M24 0v-261h32V0H24" id="E"/><g id="e"><use transform="matrix(0.08641975308641976,0,0,0.08641975308641976,0,0)" xlink:href="#B"/><use transform="matrix(0.08641975308641976,0,0,0.08641975308641976,25.83950617283951,0)" xlink:href="#C"/><use transform="matrix(0.08641975308641976,0,0,0.08641975308641976,43.12345679012346,0)" xlink:href="#D"/><use transform="matrix(0.08641975308641976,0,0,0.08641975308641976,60.407407407407426,0)" xlink:href="#t"/><use transform="matrix(0.08641975308641976,0,0,0.08641975308641976,77.69135802469137,0)" xlink:href="#E"/></g><path fill="#333" d="M182 0l-62-99L58 0H3l86-130-79-118h55l55 88 55-88h55l-75 118L237 0h-55" id="F"/><use transform="matrix(0.07407407407407408,0,0,0.07407407407407408,0,0)" xlink:href="#F" id="f"/><path fill="#333" d="M136-208V0H84v-208H4v-40h212v40h-80" id="G"/><path fill="#333" d="M185-48c-13 30-37 53-82 52C43 2 14-33 14-96s30-98 90-98c62 0 83 45 84 108H66c0 31 8 55 39 56 18 0 30-7 34-22zm-45-69c5-46-57-63-70-21-2 6-4 13-4 21h74" id="H"/><path fill="#333" d="M137-138c1-29-70-34-71-4 15 46 118 7 119 86 1 83-164 76-172 9l43-7c4 19 20 25 44 25 33 8 57-30 24-41C81-84 22-81 20-136c-2-80 154-74 161-7" id="I"/><path fill="#333" d="M115-3C79 11 28 4 28-45v-112H4v-33h27l15-45h31v45h36v33H77v99c-1 23 16 31 38 25v30" id="J"/><g id="g"><use transform="matrix(0.07407407407407408,0,0,0.07407407407407408,0,0)" xlink:href="#G"/><use transform="matrix(0.07407407407407408,0,0,0.07407407407407408,14.222222222222225,0)" xlink:href="#H"/><use transform="matrix(0.07407407407407408,0,0,0.07407407407407408,29.03703703703704,0)" xlink:href="#I"/><use transform="matrix(0.07407407407407408,0,0,0.07407407407407408,43.85185185185187,0)" xlink:href="#J"/></g><path d="M106-169C34-169 62-67 57 0H25v-261h32l-1 103c12-21 28-36 61-36 89 0 53 116 60 194h-32v-121c2-32-8-49-39-48" id="K"/><g id="h"><use transform="matrix(0.06172839506172839,0,0,0.06172839506172839,0,0)" xlink:href="#q"/><use transform="matrix(0.06172839506172839,0,0,0.06172839506172839,11.11111111111111,0)" xlink:href="#K"/></g><path fill="#3a414a" d="M127-220V0H93v-220H8v-28h204v28h-85" id="L"/><path fill="#3a414a" d="M117-194c89-4 53 116 60 194h-32v-121c0-31-8-49-39-48C34-167 62-67 57 0H25l-1-190h30c1 10-1 24 2 32 11-22 29-35 61-36" id="M"/><path fill="#3a414a" d="M177-190C167-65 218 103 67 71c-23-6-38-20-44-43l32-5c15 47 100 32 89-28v-30C133-14 115 1 83 1 29 1 15-40 15-95c0-56 16-97 71-98 29-1 48 16 59 35 1-10 0-23 2-32h30zM94-22c36 0 50-32 50-73 0-42-14-75-50-75-39 0-46 34-46 75s6 73 46 73" id="N"/><g id="i"><use transform="matrix(0.06790123456790124,0,0,0.06790123456790124,0,0)" xlink:href="#L"/><use transform="matrix(0.06790123456790124,0,0,0.06790123456790124,13.987654320987655,0)" xlink:href="#u"/><use transform="matrix(0.06790123456790124,0,0,0.06790123456790124,22.067901234567906,0)" xlink:href="#v"/><use transform="matrix(0.06790123456790124,0,0,0.06790123456790124,35.64814814814815,0)" xlink:href="#w"/><use transform="matrix(0.06790123456790124,0,0,0.06790123456790124,41.01234567901235,0)" xlink:href="#M"/><use transform="matrix(0.06790123456790124,0,0,0.06790123456790124,54.592592592592595,0)" xlink:href="#w"/><use transform="matrix(0.06790123456790124,0,0,0.06790123456790124,59.95679012345679,0)" xlink:href="#M"/><use transform="matrix(0.06790123456790124,0,0,0.06790123456790124,73.53703703703704,0)" xlink:href="#N"/></g><path fill="#3a414a" d="M30-248c118-7 216 8 213 122C240-48 200 0 122 0H30v-248zM63-27c89 8 146-16 146-99s-60-101-146-95v194" id="O"/><g id="j"><use transform="matrix(0.06790123456790124,0,0,0.06790123456790124,0,0)" xlink:href="#O"/><use transform="matrix(0.06790123456790124,0,0,0.06790123456790124,17.58641975308642,0)" xlink:href="#v"/><use transform="matrix(0.06790123456790124,0,0,0.06790123456790124,31.16666666666667,0)" xlink:href="#s"/><use transform="matrix(0.06790123456790124,0,0,0.06790123456790124,37.9567901234568,0)" xlink:href="#v"/></g><path fill="#3a414a" d="M135-143c-3-34-86-38-87 0 15 53 115 12 119 90S17 21 10-45l28-5c4 36 97 45 98 0-10-56-113-15-118-90-4-57 82-63 122-42 12 7 21 19 24 35" id="P"/><g id="k"><use transform="matrix(0.06790123456790124,0,0,0.06790123456790124,0,0)" xlink:href="#L"/><use transform="matrix(0.06790123456790124,0,0,0.06790123456790124,12.154320987654323,0)" xlink:href="#t"/><use transform="matrix(0.06790123456790124,0,0,0.06790123456790124,25.734567901234573,0)" xlink:href="#P"/><use transform="matrix(0.06790123456790124,0,0,0.06790123456790124,37.95679012345679,0)" xlink:href="#s"/><use transform="matrix(0.06790123456790124,0,0,0.06790123456790124,44.74691358024692,0)" xlink:href="#w"/><use transform="matrix(0.06790123456790124,0,0,0.06790123456790124,50.111111111111114,0)" xlink:href="#M"/><use transform="matrix(0.06790123456790124,0,0,0.06790123456790124,63.69135802469136,0)" xlink:href="#N"/></g><path fill="#333" d="M146-102V0H94v-102L6-248h54l60 105 60-105h54" id="Q"/><use transform="matrix(0.07407407407407408,0,0,0.07407407407407408,0,0)" xlink:href="#Q" id="l"/><path fill="#333" d="M135-150c-39-12-60 13-60 57V0H25l-1-190h47c2 13-1 29 3 40 6-28 27-53 61-41v41" id="R"/><path fill="#333" d="M133-34C117-15 103 5 69 4 32 3 11-16 11-54c-1-60 55-63 116-61 1-26-3-47-28-47-18 1-26 9-28 27l-52-2c7-38 36-58 82-57s74 22 75 68l1 82c-1 14 12 18 25 15v27c-30 8-71 5-69-32zm-48 3c29 0 43-24 42-57-32 0-66-3-65 30 0 17 8 27 23 27" id="S"/><path fill="#333" d="M25-224v-37h50v37H25zM25 0v-190h50V0H25" id="T"/><path fill="#333" d="M135-194c87-1 58 113 63 194h-50c-7-57 23-157-34-157-59 0-34 97-39 157H25l-1-190h47c2 12-1 28 3 38 12-26 28-41 61-42" id="U"/><g id="m"><use transform="matrix(0.07407407407407408,0,0,0.07407407407407408,0,0)" xlink:href="#G"/><use transform="matrix(0.07407407407407408,0,0,0.07407407407407408,14.740740740740744,0)" xlink:href="#R"/><use transform="matrix(0.07407407407407408,0,0,0.07407407407407408,25.111111111111114,0)" xlink:href="#S"/><use transform="matrix(0.07407407407407408,0,0,0.07407407407407408,39.92592592592593,0)" xlink:href="#T"/><use transform="matrix(0.07407407407407408,0,0,0.07407407407407408,47.33333333333334,0)" xlink:href="#U"/></g><path fill="#3a414a" d="M63-220v92h138v28H63V0H30v-248h175v28H63" id="V"/><g id="n"><use transform="matrix(0.06790123456790124,0,0,0.06790123456790124,0,0)" xlink:href="#V"/><use transform="matrix(0.06790123456790124,0,0,0.06790123456790124,14.870370370370372,0)" xlink:href="#w"/><use transform="matrix(0.06790123456790124,0,0,0.06790123456790124,20.23456790123457,0)" xlink:href="#M"/><use transform="matrix(0.06790123456790124,0,0,0.06790123456790124,33.81481481481482,0)" xlink:href="#v"/><use transform="matrix(0.06790123456790124,0,0,0.06790123456790124,47.39506172839506,0)" xlink:href="#E"/></g><path fill="#3a414a" d="M30-248c87 1 191-15 191 75 0 78-77 80-158 76V0H30v-248zm33 125c57 0 124 11 124-50 0-59-68-47-124-48v98" id="W"/><path fill="#3a414a" d="M96-169c-40 0-48 33-48 73s9 75 48 75c24 0 41-14 43-38l32 2c-6 37-31 61-74 61-59 0-76-41-82-99-10-93 101-131 147-64 4 7 5 14 7 22l-32 3c-4-21-16-35-41-35" id="X"/><g id="o"><use transform="matrix(0.06790123456790124,0,0,0.06790123456790124,0,0)" xlink:href="#W"/><use transform="matrix(0.06790123456790124,0,0,0.06790123456790124,16.296296296296298,0)" xlink:href="#u"/><use transform="matrix(0.06790123456790124,0,0,0.06790123456790124,24.376543209876544,0)" xlink:href="#t"/><use transform="matrix(0.06790123456790124,0,0,0.06790123456790124,37.95679012345679,0)" xlink:href="#D"/><use transform="matrix(0.06790123456790124,0,0,0.06790123456790124,51.53703703703704,0)" xlink:href="#w"/><use transform="matrix(0.06790123456790124,0,0,0.06790123456790124,56.901234567901234,0)" xlink:href="#X"/><use transform="matrix(0.06790123456790124,0,0,0.06790123456790124,69.12345679012346,0)" xlink:href="#s"/><use transform="matrix(0.06790123456790124,0,0,0.06790123456790124,75.91358024691358,0)" xlink:href="#w"/><use transform="matrix(0.06790123456790124,0,0,0.06790123456790124,81.27777777777779,0)" xlink:href="#C"/><use transform="matrix(0.06790123456790124,0,0,0.06790123456790124,94.85802469135804,0)" xlink:href="#M"/></g></defs></g></svg>